<svg t="1677577328246" class="icon" viewBox="0 0 1024 1024" version="1.1" xmlns="http://www.w3.org/2000/svg" p-id="3424" width="200" height="200"><path d="M516.003 966.181c-248.256 0-450.177-201.922-450.177-450.177s201.922-450.177 450.177-450.177 450.177 201.922 450.177 450.177-201.922 450.177-450.177 450.177zM516.003 123.029c-216.795 0-392.976 176.181-392.976 392.976s176.181 392.976 392.976 392.976 392.976-176.181 392.976-392.976-176.181-392.976-392.976-392.976z" p-id="3425"></path><path d="M757.395 316.942h-486.787c-15.443 0-28.603-12.585-28.603-28.603s12.585-28.603 28.603-28.603h486.787c15.443 0 28.603 12.585 28.603 28.603s-12.585 28.603-28.603 28.603z" p-id="3426"></path><path d="M711.062 491.979h-397.551c-15.443 0-28.603-12.585-28.603-28.603v-98.959c0-15.443 12.585-28.603 28.603-28.603 303.741 0 397.551 0 397.551 0 0 0 0 0 0 0 7.438 0 14.873 2.86 20.021 8.579 5.149 5.149 8.579 12.585 8.579 20.021v98.959c-0.571 16.016-13.155 28.603-28.603 28.603zM342.112 435.349h340.922v-42.33c-44.617 0-146.435 0-340.922 0v42.33z" p-id="3427"></path><path d="M436.494 491.979c-15.443 0-28.603-12.585-28.603-28.603v-175.037c0-15.443 12.585-28.603 28.603-28.603s28.603 12.585 28.603 28.603v175.037c0 16.016-12.585 28.603-28.603 28.603z" p-id="3428"></path><path d="M590.368 491.979c-15.443 0-28.603-12.585-28.603-28.603v-175.037c0-15.443 12.585-28.603 28.603-28.603s28.603 12.585 28.603 28.603v175.037c0 16.016-12.585 28.603-28.603 28.603z" p-id="3429"></path><path d="M709.346 570.347h-390.687c-15.443 0-28.603-12.585-28.603-28.603s12.585-28.603 28.603-28.603h390.687c15.443 0 28.603 12.585 28.603 28.603s-12.585 28.603-28.603 28.603z" p-id="3430"></path><path d="M763.116 649.283h-497.653c-16.016 0-29.171-13.155-29.171-29.171s13.155-29.171 29.171-29.171h497.653c16.016 0 29.171 13.155 29.171 29.171s-13.155 29.171-29.171 29.171z" p-id="3431"></path><path d="M447.934 775.699c-15.443 0-28.028-12.585-28.603-28.028 0-15.443 12.585-28.603 28.028-28.603 42.901-0.571 42.901-5.721 42.901-15.443v-75.506c0-15.443 12.585-28.603 28.603-28.603s28.603 12.585 28.603 28.603v75.506c0 70.929-69.213 72.074-99.53 72.074 0.571 0 0 0 0 0z" p-id="3432"></path><path d="M277.472 755.679c-2.86 0-5.721 0-8.579 0-15.443-0.571-28.028-13.728-27.457-29.171s13.728-28.028 29.171-27.457c75.506 2.86 94.954-37.754 97.813-72.074 1.146-15.443 14.873-27.457 30.89-25.741 15.443 1.146 27.457 14.873 25.741 30.89-5.149 60.062-46.906 123.555-147.58 123.555z" p-id="3433"></path><path d="M747.67 755.679c-101.247 0-142.433-63.493-147.58-124.126-1.146-15.443 10.297-29.171 25.741-30.89 15.443-1.146 29.171 10.297 30.89 25.741 2.86 34.319 22.308 74.361 97.813 72.074 15.443-0.571 28.603 12.014 29.171 27.457 0.571 15.443-12.014 28.603-27.457 29.171-3.434 0.571-5.721 0.571-8.579 0.571z" p-id="3434"></path></svg>