<svg t="1677587130447" class="icon" viewBox="0 0 1024 1024" version="1.1" xmlns="http://www.w3.org/2000/svg" p-id="51065" width="200" height="200"><path d="M966.855865 783.992159l-909.715264 0c-31.559261 0-57.143075-25.583707-57.143075-57.140954l0-641.117684c0-31.557353 25.583707-57.140954 57.143075-57.140954l909.715264 0c31.557353 0 57.143075 25.583707 57.143075 57.140954l0 641.117684c0 31.557353-25.585616 57.140954-57.143075 57.140954zm-12.573335-674.261212c0-6.313386-5.11484-11.428226-11.428226-11.428226l-866.283742 0c-6.311478 0-11.428226 5.116749-11.428226 11.428226l0 598.83477c0 6.311478 5.116749 11.428226 11.428226 11.428226l866.283742 0c6.313386 0 11.428226-5.116749 11.428226-11.428226l0-598.83477zm-226.283565 191.993197l121.143163 0 0 351.986173-121.143163 0 0-351.986173zm-193.143925-108.567849l122.28647 0 0 460.552961-122.28647 0 0-460.552961zm-190.855545 218.277237l121.141396 0 0 242.276784-121.141396 0 0-242.276784zm-169.144378 107.424895l121.143163 0 0 134.852242-121.143163 0 0-134.852242zm175.999624 310.844092c0-6.311478 5.116749-11.426318 11.430135-11.426318l297.141021 0c6.313386 0 11.430135 5.11484 11.430135 11.426318l0 97.139728 195.428418 0 0 68.569428-713.144246 0 0-68.569428 197.712911 0 0-97.139728z" p-id="51066"></path></svg>